<?xml version="1.0" encoding="UTF-8" standalone="no"?>
<!-- Uploaded to: SVG Repo, www.svgrepo.com, Generator: SVG Repo Mixer Tools -->

<svg
   fill="#000000"
   height="800px"
   width="800px"
   version="1.1"
   id="Capa_1"
   viewBox="0 0 330.591 330.591"
   xml:space="preserve"
   sodipodi:docname="clip.svg"
   inkscape:version="1.4.4 (dcaf3e7, 2026-05-05)"
   xmlns:inkscape="http://www.inkscape.org/namespaces/inkscape"
   xmlns:sodipodi="http://sodipodi.sourceforge.net/DTD/sodipodi-0.dtd"
   xmlns="http://www.w3.org/2000/svg"
   xmlns:svg="http://www.w3.org/2000/svg"><defs
   id="defs2" /><sodipodi:namedview
   id="namedview2"
   pagecolor="#505050"
   bordercolor="#eeeeee"
   borderopacity="1"
   inkscape:showpageshadow="0"
   inkscape:pageopacity="0"
   inkscape:pagecheckerboard="0"
   inkscape:deskcolor="#505050"
   inkscape:zoom="0.96625"
   inkscape:cx="400.51746"
   inkscape:cy="399.48254"
   inkscape:window-width="1920"
   inkscape:window-height="991"
   inkscape:window-x="-9"
   inkscape:window-y="-9"
   inkscape:window-maximized="1"
   inkscape:current-layer="Capa_1" />
<g
   id="g2">
	<g
   id="g1">
		<path
   id="path1"
   d="M 265.677,10.252679 C 248.778,9.549685 233.10372,15.51024 221.58072,27.03324 L 13.176828,235.43713 c -9.018003,9.019 -13.68143712,21.26176 -13.13243712,34.47476 0.541,12.978 6.07155662,25.35979 15.57554912,34.86379 9.504,9.505 21.886406,15.03636 34.865406,15.57636 0.699,0.028 1.3966,0.0428 2.0896,0.0428 12.41,0 23.843358,-4.63522 32.384358,-13.17522 L 254.40011,137.77961 c 13.269,-13.272 12.53883,-35.59437 -1.63117,-49.76137 -6.779,-6.782 -15.6247,-10.728863 -24.9057,-11.113863 -9.533,-0.414 -18.34286,2.973928 -24.85486,9.485928 L 84.928634,204.47328 c -2.93,2.929 -2.93,7.677 0,10.607 2.929,2.928 7.677,2.927 10.607,0 L 213.61538,96.997304 c 3.51,-3.511 8.33577,-5.318565 13.62477,-5.106565 5.51,0.228 10.81121,2.618886 14.92421,6.732886 8.32,8.319995 9.05075,21.126985 1.62875,28.548985 L 74.352305,296.6118 c -6.015,6.018 -14.26968,9.10127 -23.24468,8.75227 -9.209,-0.382 -18.044685,-4.35838 -24.880685,-11.19538 -13.941,-13.941 -15.039113,-35.53056 -2.443113,-48.12456 L 232.18772,37.637818 c 8.521,-8.523 20.19539,-12.931777 32.86539,-12.398777 12.906,0.537 25.27896,6.09626 34.83796,15.65626 9.56,9.561 15.12088,21.933578 15.65788,34.839578 0.528,12.671 -3.87659,24.343391 -12.39959,32.865391 l -25.82822,25.82823 c 0.49688,0.68989 0.96555,1.39888 1.37934,2.14368 1.93052,2.20944 3.83792,4.44051 5.67558,6.72804 0.27781,0.35091 0.55593,0.70238 0.83374,1.05328 0.7128,0.90035 0.98588,1.75216 0.95238,2.44876 l 27.59257,-27.59337 c 11.525,-11.525 17.48437,-27.18529 16.78137,-44.09629 -0.691,-16.676 -7.80924,-32.593684 -20.03724,-44.822684 -12.228,-12.227 -28.14588,-19.344237 -44.82188,-20.037237 z m 12.84672,142.952361 c -0.0524,0.009 -0.10502,0.0185 -0.15738,0.0274 -0.002,0.0161 -0.003,0.0321 -0.005,0.0484 0.1815,0.25844 0.36241,0.51743 0.54318,0.77643 l 0.33656,-0.33575 c -0.18263,-0.14581 -0.36532,-0.29171 -0.54802,-0.43746 -0.0528,-0.0242 -0.10551,-0.0488 -0.1582,-0.0734 -0.004,-0.002 -0.007,-0.004 -0.0113,-0.006 z m -20.19462,1.0678 c -0.0459,0.0702 -0.09,0.14196 -0.13156,0.21469 0.0773,-0.01 0.15332,-0.0155 0.22761,-0.0169 0.0101,-1.8e-4 0.0198,3e-5 0.0299,0 -0.025,-0.0558 -0.0715,-0.12437 -0.12591,-0.19774 z m -6.52384,14.76602 c -0.0674,0.0529 -0.13498,0.10557 -0.20259,0.15819 0.0455,-0.005 0.0911,-0.009 0.1364,-0.0137 0.17485,-0.0167 0.34897,-0.0262 0.52139,-0.0282 -0.15068,-0.0402 -0.30325,-0.0779 -0.4552,-0.11623 z m 2.88056,0.13721 c -0.21175,0.0249 -0.42449,0.0427 -0.636,0.0694 -0.1692,0.009 -0.33849,0.0205 -0.50767,0.0291 0.17244,0.0344 0.343,0.0759 0.5109,0.12429 0.10966,-0.0111 0.22015,-0.0197 0.33091,-0.0242 0.10073,-0.0661 0.20123,-0.13227 0.30186,-0.19855 z m -6.79019,2.76676 c -0.10343,0.0739 -0.20718,0.14746 -0.31074,0.22115 0.0885,-0.0124 0.17713,-0.0229 0.26554,-0.0323 0.0155,-0.0628 0.0308,-0.12608 0.0452,-0.18887 z m -26.9493,33.28186 c -0.4451,0.20119 -0.88752,0.4084 -1.32769,0.62067 0.1265,0.0696 0.2537,0.13856 0.38015,0.20823 0.316,-0.24979 0.63294,-0.4989 0.94996,-0.74738 -8.3e-4,-0.0272 -0.002,-0.0543 -0.002,-0.0815 z m -62.211,68.36358 c -0.0898,0.11969 -0.19577,0.23491 -0.318,0.34382 -0.0468,0.0573 -0.0939,0.11425 -0.14124,0.17111 0.0677,10e-4 0.13515,0.002 0.20258,8.1e-4 0.10258,-0.0747 0.20356,-0.15238 0.30267,-0.23245 -0.017,-0.0943 -0.0327,-0.18884 -0.046,-0.28329 z m -5.65943,4.65862 c -0.0351,0.0136 -0.0705,0.0274 -0.10573,0.0403 0.0416,-0.009 0.0836,-0.0186 0.1251,-0.0283 -0.006,-0.004 -0.013,-0.008 -0.0194,-0.0121 z" />
	</g>
</g>
</svg>
